# xmcd
#
# Track frame offsets:
#       150
#       22355
#       51778
#       65523
#       90730
#       107577
#       134105
#       147040
#       163597
#
# Disc length: 2425 seconds
#
# Revision: 1
# Processed by: cddbd v1.4PL0 Copyright (c) Steve Scherf et al.
# Submitted via: MusiCat 1.1
#
DISCID=82097709
DTITLE=Steve Earle - October 29,1999,Chiari, Italy - Disc 2
DYEAR=1900
DGENRE=
TTITLE0=Tom Ames Prayer
TTITLE1=Billy Austin
TTITLE2=Angel Is The Devil
TTITLE3=Christmas In Washington
TTITLE4=Telephone Road
TTITLE5=I Ain't Ever Satisfied
TTITLE6=I Feel Alright
TTITLE7=Guitar Town
TTITLE8=Copperhead Road
EXTD=\n\n
EXTT0=
EXTT1=
EXTT2=
EXTT3=
EXTT4=
EXTT5=
EXTT6=
EXTT7=
EXTT8=
PLAYORDER=
